<?xml version="1.0" ?><!DOCTYPE svg  PUBLIC '-//W3C//DTD SVG 20010904//EN'  'http://www.w3.org/TR/2001/REC-SVG-20010904/DTD/svg10.dtd'><svg height="512.000000pt" preserveAspectRatio="xMidYMid meet" version="1.0" viewBox="0 0 512.000000 512.000000" width="512.000000pt" xmlns="http://www.w3.org/2000/svg"><g fill="#000000" stroke="none" transform="translate(0.000000,512.000000) scale(0.100000,-0.100000)"><path d="M1487 3802 c-16 -17 -17 -118 -17 -1244 0 -1174 1 -1226 18 -1241 17 -16 106 -17 1074 -17 1009 0 1056 1 1071 18 15 16 17 45 17 204 0 151 -3 188 -15 198 -8 6 -44 16 -80 20 -93 12 -150 50 -190 130 -30 61 -37 108 -25 168 25 113 106 188 219 201 98 12 91 -18 91 406 0 358 -1 373 -20 390 -16 14 -30 17 -75 12 -329 -34 -588 297 -495 631 25 88 25 105 2 125 -17 16 -86 17 -789 17 -733 0 -771 -1 -786 -18z m1426 -220 c-7 -135 12 -233 68 -339 98 -190 265 -304 482 -328 l57 -6 0 -268 0 -267 -53 -17 c-110 -35 -196 -117 -239 -230 -29 -75 -29 -202 1 -280 44 -112 139 -200 249 -228 l42 -11 0 -89 0 -89 -960 0 -960 0 0 1130 0 1130 659 0 660 0 -6 -108z"/><path d="M2134 3460 c-103 -21 -212 -110 -257 -208 -18 -38 -22 -65 -22 -147 0 -88 3 -107 27 -157 33 -71 101 -138 176 -175 50 -24 69 -27 152 -28 82 0 103 4 150 26 78 37 131 87 171 161 33 60 34 67 34 168 0 92 -3 112 -26 160 -69 147 -246 234 -405 200z m139 -134 c65 -19 103 -50 137 -109 68 -119 21 -265 -105 -323 -196 -92 -396 119 -299 314 28 56 84 103 145 120 48 14 70 14 122 -2z"/><path d="M2843 2659 c-139 -27 -229 -167 -194 -305 45 -179 263 -250 405 -133 131 109 108 338 -42 413 -56 28 -112 36 -169 25z m133 -163 c29 -29 34 -41 34 -79 0 -55 -33 -100 -84 -117 -96 -31 -185 72 -141 164 22 45 56 65 114 66 36 0 49 -6 77 -34z"/><path d="M2155 2281 c-95 -25 -165 -91 -192 -180 -53 -182 82 -352 269 -339 107 7 180 58 226 157 59 127 -6 293 -135 347 -41 17 -129 25 -168 15z m132 -146 c32 -22 63 -74 63 -108 0 -16 -8 -45 -17 -64 -46 -98 -191 -96 -238 3 -56 118 83 240 192 169z"/></g></svg>